<svg width="50" height="50" viewBox="0 0 50 50" fill="none" xmlns="http://www.w3.org/2000/svg">
<path d="M25 1C11.7578 1 1 11.7578 1 25C1 38.2422 11.7578 49 25 49C38.2422 49 49 38.2422 49 25C49 11.7578 38.2422 1 25 1ZM25 3C37.1641 3 47 12.8359 47 25C47 37.1602 37.1641 47 25 47C12.8398 47 3 37.1602 3 25C3 12.8359 12.8398 3 25 3ZM23.4688 3.71875L21.375 3.96875L21.1562 10.2812L22.7812 10.0312L22.9375 5.8125L24.4062 10.0312H25.5938L27.0625 5.8125L27.2188 10.0312L28.8438 10.2812L28.625 3.96875L26.5312 3.71875L25 8.15625L23.4688 3.71875ZM38.7812 8.5625L35 13.5625L36.1562 14.625L40.3438 12.7188L37.5625 16.375L38.375 17.75L44.0625 15.125L43.25 13.75L39.9688 15.25L42.3125 12.1875L41.2812 10.9062L37.7812 12.5312L39.9688 9.65625L38.7812 8.5625ZM10.9375 9.3125C10.7969 9.32422 10.6367 9.35547 10.5 9.40625C10.2422 9.50391 10.0156 9.66016 9.84375 9.875C9.74609 9.99609 9.66016 10.1289 9.5625 10.25C9.05469 10.8867 8.53906 11.5195 8.03125 12.1562C7.59375 12.7031 7.15625 13.2344 6.71875 13.7812C6.69141 13.8164 6.65234 13.8711 6.625 13.9062C6.62109 13.9102 6.68359 13.9336 6.6875 13.9375C6.85938 14.0742 7.05078 14.207 7.21875 14.3438C7.85938 14.8555 8.48438 15.3633 9.125 15.875C9.75781 16.3828 10.3945 16.8984 11.0312 17.4062C11.1914 17.5352 11.3711 17.6836 11.5312 17.8125C11.5391 17.8203 11.5547 17.8516 11.5625 17.8438C11.5938 17.8047 11.625 17.7578 11.6562 17.7188C12.0898 17.1758 12.5352 16.6367 12.9688 16.0938C13.4922 15.4414 14.0078 14.7773 14.5312 14.125C14.8008 13.7891 15.0898 13.4844 15.2188 13.0625C15.2852 12.8438 15.3008 12.5977 15.2812 12.375C15.1953 11.7773 14.8359 11.2852 14.2812 11.0312C13.7266 10.7773 13.082 10.8711 12.5938 11.2188C12.5547 11.2461 12.5078 11.2812 12.4688 11.3125C12.5508 11.0352 12.6016 10.7539 12.5312 10.4688C12.4648 10.1914 12.2969 9.94922 12.0938 9.75C11.7812 9.44531 11.3633 9.28125 10.9375 9.3125ZM10.8125 10.9062C11.0273 10.8906 11.2578 10.9609 11.4062 11.125C11.5664 11.3008 11.6133 11.5508 11.5625 11.7812C11.5039 11.9844 11.3477 12.1211 11.2188 12.2812C10.9609 12.6055 10.6953 12.9258 10.4375 13.25C10.1758 13.5742 9.91406 13.8945 9.65625 14.2188C9.39062 14.0078 9.14062 13.8047 8.875 13.5938C8.77344 13.5117 8.66406 13.4258 8.5625 13.3438C8.55859 13.3398 8.67969 13.2266 8.6875 13.2188C9.17969 12.6055 9.66406 11.9883 10.1562 11.375C10.2852 11.2148 10.3945 11.0195 10.5938 10.9375C10.6602 10.9102 10.7422 10.9102 10.8125 10.9062ZM25 11C17.2812 11 11 17.2812 11 25C11 32.7188 17.2812 39 25 39C32.7188 39 39 32.7188 39 25C39 17.2812 32.7188 11 25 11ZM13 12.3125C13.2891 12.3047 13.5352 12.4609 13.6562 12.7188C13.7617 12.9688 13.7305 13.2578 13.5625 13.4688C13.3945 13.6797 13.2266 13.8867 13.0625 14.0938C12.6055 14.668 12.1445 15.2383 11.6875 15.8125C11.6641 15.793 11.6172 15.8008 11.5938 15.7812C11.4688 15.6797 11.3438 15.5703 11.2188 15.4688C11.0039 15.2969 10.8086 15.1094 10.5938 14.9375C11.0078 14.418 11.3984 13.9258 11.8125 13.4062C12.0156 13.1523 12.2344 12.8789 12.4375 12.625C12.582 12.4453 12.7578 12.3203 13 12.3125ZM25 13C31.6406 13 37 18.3594 37 25H25V37C18.3594 37 13 31.6406 13 25H25V13Z" fill="white"/>
</svg>
