<svg width="159" height="50" viewBox="0 0 159 50" fill="none" xmlns="http://www.w3.org/2000/svg">
<path fill-rule="evenodd" clip-rule="evenodd" d="M4.6232 2.23165C6.54551 2.78631 8.72364 2.8318 10.2196 4.67779C11.0315 5.82828 11.1168 7.82594 10.5181 9.02843C9.36318 11.3727 7.05714 12.5666 5.6483 14.5642C4.9647 15.2295 4.4629 16.1143 4.20494 17.1094C3.94697 18.1044 3.94416 19.166 4.19684 20.1628C4.70847 21.9568 6.20257 23.2048 7.82644 23.3543C10.2604 23.4041 12.1401 22.0088 14.0624 20.6633C16.0292 19.0644 17.8644 16.9172 20.1296 16.2672C21.5811 15.6194 23.3347 15.9704 24.7417 15.2684C26.3656 14.9217 27.5612 13.3726 28.8014 12.0271C30.1694 10.7228 31.8341 9.92758 33.6711 10.0294C35.3358 10.3262 36.2775 8.53227 37.3452 7.43161C39.2675 5.43396 41.7441 5.18479 43.9667 4.03863C45.5035 3.43847 46.7844 2.13848 48.2377 1.24149C49.6465 0.543825 51.5689 0.442003 52.9777 1.04216C53.9175 1.54049 54.8574 2.04098 55.6712 2.73865L62.4206 9.27759C62.5059 9.53109 62.7635 9.72609 62.9322 9.92976C64.8564 12.5709 66.8621 15.2186 68.3989 18.1652C68.9123 19.1684 69.0829 20.3145 69.3387 21.4152C69.6798 25.859 70.7049 29.7524 71.945 33.5982C72.2861 34.2461 72.9275 34.6469 73.3112 35.2406C74.3363 36.9934 75.0204 39.1882 76.7295 40.3365L77.7528 40.9367C77.7954 41.0342 77.838 41.1859 77.7528 41.3354L77.5822 41.487C75.532 41.8857 73.9934 40.3864 72.883 38.64C72.199 37.1472 71.3444 35.4442 69.8503 34.8441C69.765 34.7986 69.7206 34.8939 69.6779 34.9459C69.8503 35.4962 70.3193 35.9447 70.5306 36.443C71.0868 37.5437 71.6002 38.6899 71.856 39.7862C72.199 41.0342 73.3502 41.9832 74.2919 42.6332L75.6154 43.4327C75.7841 43.5843 75.8305 43.8812 75.7007 44.0328L75.4856 44.1845C73.2667 44.23 71.2573 43.4305 69.7632 41.4849C69.3795 41.032 68.9086 40.5835 68.3525 40.5835C67.3719 41.6322 66.3894 42.631 65.0214 42.7328C63.6978 42.4837 62.1166 42.4837 60.8783 43.0795C59.7253 43.5323 58.6149 44.1282 57.3321 44.1845C56.7333 44.1845 56.0512 43.8292 55.8361 43.1813C55.8361 42.3818 55.3227 41.383 55.7509 40.486L56.6036 39.0387C56.6036 38.835 56.5183 38.6877 56.3478 38.6357C55.964 38.5902 55.4079 39.2835 55.28 38.5382C55.3634 37.0411 56.6017 36.1441 57.4137 35.1452C57.6287 33.9427 58.0124 32.8941 58.7372 31.9971C58.7372 31.8454 58.6093 31.6959 58.524 31.6504C57.4581 31.8454 56.3886 32.1964 55.2355 32.1487C54.2957 32.6947 53.1853 33.0978 52.1157 32.6948C51.8618 32.5474 51.947 32.2419 52.0304 31.9971C53.1427 30.2443 53.569 27.9 53.2687 25.6076C53.1853 25.5058 53.1408 25.3065 52.9684 25.3541C52.7979 25.3541 52.7979 25.5578 52.7126 25.7095C52.4822 27.6911 51.8692 29.5856 50.92 31.2496C50.1934 32.1509 49.0404 32.1011 48.0579 32.4477C47.8429 32.5994 47.5871 32.7944 47.5871 33.1497C47.5444 33.8951 48.0134 34.4454 48.2711 35.0456L50.4511 39.6887C50.49 40.9887 50.0636 42.1847 49.8078 43.333C49.9357 43.5367 50.1081 43.4348 50.236 43.333C51.0053 42.5877 51.4743 41.487 51.7746 40.3885C51.8617 39.8902 51.6875 39.2879 51.5614 38.8914L49.3407 33.7499C49.4686 33.3989 49.8523 33.5007 50.11 33.3469C50.6235 33.2971 51.0498 33.6524 51.5207 33.7954C52.0304 35.3944 52.5866 36.9435 53.569 38.341C53.7396 39.1925 53.9546 40.3387 53.4838 41.0883C53.0274 42.2086 52.4852 43.2783 51.8636 44.2842C51.3056 44.9818 50.4084 44.9363 49.6391 45.0338H48.9977C47.0328 46.2363 44.9399 47.0315 42.8471 47.7855C41.9091 48.2838 40.7968 47.9328 40.1128 47.1853C39.3862 46.5331 39.0451 45.5343 38.5742 44.6373C38.0181 43.8378 37.0783 44.5355 36.4406 44.087C35.8845 42.9907 35.3284 41.942 34.8149 40.8457C34.7741 40.5402 34.8149 40.2455 35.028 40.0462C35.7566 39.745 36.6111 39.6952 37.4212 39.5977C38.1924 39.5435 38.9598 39.6952 39.4733 40.343C40.4557 41.6928 40.8395 43.5432 42.3354 44.4358C43.4885 44.5377 44.5136 44.0892 45.496 43.5432C46.0503 43.1402 46.7343 42.5443 46.7343 41.6929C46.6491 39.992 45.6666 38.6465 44.4691 37.6477C43.2326 36.898 41.9072 35.8494 40.9655 34.5039C40.5392 33.7542 40.4094 32.8529 40.1536 32.0079C40.0879 31.9311 40.0033 31.88 39.9117 31.8617C39.82 31.8435 39.7258 31.859 39.642 31.9061C39.173 32.4044 39.5567 33.2559 39.5993 33.8517C39.642 34.2547 39.8996 34.7076 39.6846 35.0542C38.9579 35.7064 37.9328 35.3554 36.993 35.4009C35.1559 35.2492 33.4894 34.4519 31.5671 34.6556C29.7282 34.7487 27.2943 36.1527 25.9281 34.1052C25.2441 32.1076 25.4572 29.6614 25.7576 27.614C25.7576 27.3605 25.5444 27.2629 25.372 27.2153C25.2441 27.1654 25.0309 27.2608 24.9883 27.4601C24.5174 29.4578 24.3895 31.7046 24.0058 33.7997C23.3236 35.6501 22.254 37.548 20.6301 38.5469C19.1787 39.394 17.5567 39.693 15.8457 39.8469C12.7258 39.8924 9.78026 40.642 7.90244 43.7902C7.73004 44.087 7.47238 44.3362 7.55765 44.7392C7.64477 44.841 7.8598 44.9385 7.98586 44.841C10.1214 41.9897 12.8982 40.8934 16.0181 41.0407C19.0081 41.0407 21.9574 40.4448 23.8352 37.4484C24.3042 36.8005 24.6045 36.0509 25.0327 35.3532C25.3738 35.3532 25.6296 35.8494 25.8873 36.0509C25.9281 37.0995 25.2033 37.795 24.9048 38.6964C24.5193 39.6454 24.0929 40.7915 23.2383 41.3418C22.2559 41.591 21.4013 42.3905 20.5486 43.0427C19.6087 43.541 18.4539 43.7403 17.3861 43.3937C16.0199 43.0882 14.2255 42.6917 12.9001 43.4392C12.2161 43.9375 11.7044 44.7847 11.0204 45.2895C10.0806 45.738 9.31313 46.635 8.20274 46.5851C7.47423 46.4335 6.53625 45.8398 5.89486 46.635C5.12556 47.4821 4.86788 48.9793 3.84463 49.5795C2.60448 50.3789 1.32541 49.5795 0.0407808 49.4321L0 49.378C0.255814 48.0325 0.426357 46.635 1.19751 45.5863C1.66465 45.5365 2.13549 45.439 2.51921 45.036C2.9882 44.5377 3.33115 43.8378 3.67409 43.242C4.74183 42.4923 5.98198 41.8445 6.66415 40.4947C7.17578 39.2467 7.22027 38.1005 8.0322 36.9479L8.46041 36.7485L10.6812 36.5492C11.5784 36.0964 12.4329 35.6002 13.2449 34.8484C13.5007 34.5516 13.5433 34.1031 13.5007 33.6546C13.117 32.4022 12.7295 31.5053 12.4756 30.2053C12.2198 28.8078 12.3903 27.458 12.2606 25.911C12.1771 25.8135 12.0919 25.5643 11.8768 25.5643C10.4254 25.911 8.97204 26.4115 7.35003 26.1146C5.12927 25.8135 2.82137 24.117 2.00944 21.5192C1.28278 19.2723 1.45517 16.1285 2.86401 14.3302C4.18942 12.3846 5.89856 10.8852 7.47608 9.33609C7.73375 9.13676 7.73375 8.78576 7.82087 8.43909C7.77638 8.0881 7.47608 7.73711 7.22212 7.63961C6.19701 7.33845 5.04399 7.73711 4.05966 7.24095C2.35238 6.49129 0.98433 4.59547 0.771152 2.54799C0.728516 1.59899 0.856418 0.749661 1.28278 0C2.40057 0.686828 3.34042 1.83515 4.6232 2.23165ZM114.325 2.33349C115.222 2.98565 115.606 4.38096 116.675 4.67779C118.511 5.18045 120.303 5.68095 121.972 6.62778C123.167 7.32544 124.239 8.32428 125.258 9.3751C126.243 10.0273 127.481 9.92543 128.549 10.3739C130.087 10.8224 131.366 12.2199 132.777 13.2686C134.616 14.9694 137.176 14.7159 139.226 15.8166C142.516 17.019 145.208 20.0112 148.241 21.8095C149.824 22.8083 152.217 23.207 153.795 22.0587C154.862 21.1573 155.546 20.0112 155.333 18.41C154.736 14.5209 151.018 12.3716 149.225 9.12592C148.88 8.32643 148.667 7.32761 148.841 6.37862C149.479 4.4828 151.273 3.43414 152.686 2.73431C153.882 2.03665 155.333 2.18399 156.444 1.43433C156.827 1.13316 157.172 0.736653 157.469 0.435489C157.723 0.435489 157.723 0.73666 157.765 0.933826C158.11 3.23264 157.765 5.62679 156.017 6.97662C155.376 7.52694 154.566 7.72194 153.795 7.97544C153.111 8.3221 151.831 7.62444 151.872 9.0241C152.046 9.61993 152.556 10.1204 152.984 10.5213C155.29 12.7637 157.426 15.6129 157.684 19.1077C157.767 21.803 156.188 24.1517 154.223 25.2978C152.771 25.9955 150.892 26.2966 149.31 25.742C148.884 25.6986 148.198 25.2003 147.902 25.8481C147.814 26.5978 148.243 27.1481 148.243 27.8913C148.413 29.1436 148.413 30.7859 148.072 31.9884C147.902 32.9872 147.047 34.1377 147.814 35.1366C148.586 36.4322 150.082 36.0336 151.275 36.2827C151.959 36.4301 152.173 37.2772 152.343 37.8774C152.601 38.627 152.643 39.4764 152.901 40.0787C152.858 41.4762 154.265 42.072 154.994 43.0232C155.806 44.0675 156.533 45.9178 157.98 45.8203C158.451 46.9665 158.751 48.0628 158.881 49.4126L158.707 49.5599C157.511 49.5599 155.973 49.9586 155.118 48.9598C154.134 48.2145 153.793 46.1171 152.341 46.6653C151.7 47.2655 150.758 47.4605 149.991 47.064C149.307 46.7671 148.795 46.0196 148.156 45.5668C146.146 43.8703 143.543 43.0232 140.976 43.671C139.48 44.1195 138.329 42.9213 137.135 42.1218C135.596 41.3722 135.168 39.3745 134.825 37.73L134.529 35.6869C134.571 35.4832 134.655 35.2839 134.825 35.2297H135.083C135.941 37.6282 137.689 40.3257 139.912 41.175C141.96 42.1738 143.885 40.9258 146.059 41.3743C148.156 41.6755 149.733 43.2247 151.359 44.7218C151.529 44.7218 151.613 44.5702 151.7 44.4163V44.269C149.82 41.4762 147.171 40.0288 144.096 40.2737C141.577 40.9258 139.013 39.927 137.604 37.431C136.792 35.9837 136.149 34.4866 135.939 32.7836C135.724 30.8008 135.35 28.846 134.823 26.9445C134.653 26.8426 134.482 26.6953 134.314 26.7971L134.143 27.0983C134.44 28.9443 134.868 31.1911 134.314 33.1411C133.887 34.6902 132.517 35.2319 131.279 35.3381C130.041 35.4356 128.886 35.1387 127.605 35.1387C124.615 34.9871 122.011 36.4344 118.933 36.0357C119.191 35.2319 119.662 34.3349 119.404 33.3859C119.278 33.1909 119.104 33.1411 118.933 33.1909C118.336 33.5896 118.424 34.4346 118.082 34.9849C117.437 36.2849 116.199 37.379 114.961 37.6802C114.064 38.4797 113.209 39.5804 112.525 40.5229C112.228 40.8284 112.228 41.3743 112.312 41.7752C112.953 43.5237 114.618 43.7208 115.986 44.1737C116.627 44.2192 117.267 43.97 117.569 43.3178C118.123 42.2735 118.253 40.5207 119.575 40.3214H122.481C122.691 40.4232 122.908 40.5705 122.991 40.8717L122.908 41.37C122.266 42.2713 121.966 43.4175 121.156 44.1173C120.685 44.2647 120.047 44.0675 119.743 44.5658C119.573 45.7163 119.317 46.9643 118.335 47.5623C117.606 48.3575 116.499 47.9653 115.687 47.6641C114.149 46.9665 112.523 46.6653 110.988 46.0651C110.304 45.8203 110.047 44.8713 109.363 44.6676C108.679 44.4683 107.954 45.1162 107.396 44.4142C107.086 43.6519 106.857 42.8477 106.715 42.02C106.458 41.474 106.332 40.772 106.202 40.1242C106.119 39.5782 106.245 39.1752 106.376 38.627L108.508 34.1377C108.679 33.8842 108.849 33.5874 109.105 33.4357C109.618 33.5874 110.173 33.8842 110.643 34.1897L110.556 34.4866L108.38 38.4299C107.909 39.6779 108.38 41.0754 108.847 42.176C108.977 42.2778 109.021 42.4772 109.148 42.3753C109.06 41.5758 108.977 40.7763 109.148 39.9768C109.277 39.2315 109.661 38.5339 110.089 37.8319L111.795 34.8354C112.008 34.3371 111.924 33.5917 111.669 33.0912C110.901 32.1899 109.833 31.9906 109.192 30.7903C107.741 28.5976 107.653 25.9998 107.483 23.2027C107.44 22.9535 107.312 22.6567 107.056 22.6068C106.886 22.557 106.76 22.7585 106.673 22.908C106.202 24.702 106.502 26.9488 106.886 28.5499C107.186 29.8499 107.653 31.0459 108.124 32.2397C108.167 32.4932 108.037 32.6926 107.867 32.7901C106.715 32.8919 105.561 32.7446 104.452 32.5951C102.913 32.3416 101.846 30.9961 100.65 29.9453C100.476 29.8478 100.35 30.0471 100.263 30.1489C100.604 32.0946 102.443 33.1952 102.997 35.0412C103.384 36.4387 104.535 37.5849 104.836 39.0864C104.836 39.3355 104.661 39.5847 104.535 39.6822C104.109 39.8339 103.681 39.4829 103.34 39.7797C103.253 40.5792 103.723 41.4805 103.427 42.332C102.997 43.0297 102.443 43.9267 101.671 43.9267C100.179 43.3265 98.724 42.6267 97.2299 42.0763C96.1621 41.9745 95.0536 42.1782 94.0693 42.3298C93.0887 42.0763 92.4046 41.0775 91.6798 40.4297C91.4221 40.3799 91.2053 40.3279 91.0347 40.5272C89.3701 42.4772 87.5738 44.5723 85.0972 44.4207C84.9267 44.4207 84.8006 44.2257 84.8006 44.074L84.8433 43.8747C85.9518 42.7285 87.2327 41.5303 87.7036 39.9314C88.0447 38.6314 89.0716 37.6325 89.4164 36.3347C89.4553 36.0855 89.2867 35.9881 89.1587 35.9361L88.8585 36.1397C87.6609 37.6325 86.7229 39.1817 85.8684 40.7785C84.9267 41.8792 83.6013 42.5313 82.2369 42.1283C82.0664 41.9767 82.0664 41.6798 82.1517 41.5325C87.3217 37.834 87.8778 31.2951 89.3274 25.3043C90.3118 21.361 90.9958 17.3137 93.6874 14.0681C97.6599 9.02844 102.615 5.98212 106.971 1.53832C107.616 0.836325 108.256 0.188505 109.107 0.138672C111.164 -0.0606597 112.829 0.938167 114.325 2.33349Z" fill="white"/>
<path fill-rule="evenodd" clip-rule="evenodd" d="M109.626 8.53009C109.839 8.92875 109.583 9.27542 109.413 9.62642C108.261 10.8744 106.849 12.2199 105.994 13.7691C105.687 14.2853 105.429 14.8389 105.223 15.42C105.184 15.4699 105.101 15.5219 105.014 15.4699C104.801 14.666 105.101 13.8709 105.268 13.0757C105.868 11.2232 107.194 9.52892 108.558 8.3286C108.855 8.07727 109.455 8.02959 109.626 8.53009ZM53.4059 12.4734C53.9194 13.9207 53.9194 15.8664 53.5764 17.4112C53.4912 17.5174 53.4059 17.5174 53.3225 17.4654C53.1093 16.1155 52.8516 14.7137 52.3808 13.4202C52.125 12.6706 51.2704 12.0227 51.6968 11.1257C51.7875 11.0287 51.8995 10.9631 52.0203 10.9363C52.1412 10.9095 52.266 10.9226 52.3808 10.9741C52.8516 11.3727 53.152 11.9231 53.4059 12.4734ZM66.6508 26.002C67.5906 27.2499 68.232 28.5998 67.8891 30.2919C67.763 30.6473 67.8038 31.0958 67.4182 31.1933C67.2495 31.2951 67.1198 31.1477 67.1198 30.9441C67.0771 30.0471 67.0771 29.1501 66.6063 28.3961C66.0947 27.7526 65.5404 26.6996 64.7266 26.6996C64.1705 26.8469 63.7441 27.6508 63.4031 28.1469C63.3586 28.2488 63.2752 28.2488 63.2325 28.2011C62.9322 27.2499 63.531 26.5003 63.7868 25.7051C64.2558 25.105 64.1705 23.4583 65.2382 24.0043C65.9668 24.4528 66.1373 25.4018 66.6508 26.002ZM96.8962 25.2068C97.406 25.9521 97.7934 26.7516 98.0919 27.6529C98.1345 27.8479 98.0919 28.0516 98.0085 28.2488C97.9213 28.4481 97.7508 28.6518 97.5376 28.4979C96.9796 28.2488 97.0668 27.2499 96.342 27.2998C95.8285 27.2499 95.4874 27.7981 95.061 28.0494C94.3325 28.8446 93.3519 29.6484 93.1776 30.7924C93.0516 31.1954 93.0942 31.7912 92.7939 32.0447C92.5807 32.0946 92.3676 31.8931 92.3676 31.6937C92.2958 30.9569 92.3744 30.2106 92.5971 29.5161C92.8198 28.8216 93.1801 28.1987 93.6485 27.6984C94.5457 26.8014 95.2316 25.6033 95.999 24.5546C96.4254 24.4528 96.7257 24.8038 96.8962 25.2068ZM64.8582 37.4354C64.9416 38.0875 64.9416 38.8329 64.4727 39.2337C63.9184 39.433 63.3604 39.4829 62.7654 39.4829C62.593 39.381 62.4224 39.2792 62.4651 39.0842C62.7227 38.2327 63.4475 37.3314 64.2595 37.1385C64.5134 37.1407 64.8137 37.0887 64.8582 37.4354ZM97.1965 38.0377C97.3634 38.4862 97.6637 38.9347 97.4542 39.3832C97.1094 39.6844 96.5125 39.5305 96.0861 39.485C95.5727 39.1384 95.4892 38.4364 95.4021 37.7842C95.4021 37.6369 95.4447 37.4375 95.5727 37.3357C96.1677 37.3335 96.7683 37.4874 97.1965 38.0377Z" fill="black"/>
</svg>
