<svg width="282" height="51" viewBox="0 0 282 51" fill="none" xmlns="http://www.w3.org/2000/svg">
<path d="M23.0961 0.896973C35.8412 0.896973 45.9792 11.035 45.9792 23.7801C45.9792 36.5262 35.8412 46.6632 23.0961 46.6632C10.35 46.6632 0.213013 36.5262 0.213013 23.7801C0.213013 11.035 10.35 0.896973 23.0961 0.896973ZM11.6792 14.2328V18.0213H34.5131V14.2328H11.6792ZM34.5131 33.3274V21.8601H11.6792V33.3263H15.4688V28.9952C15.4688 27.7655 15.7642 27.0763 16.2061 26.584C16.6984 25.9943 17.4369 25.6497 18.323 25.6497C19.2092 25.6497 19.9465 25.9943 20.4388 26.584C20.8819 27.0763 21.1772 27.7655 21.1772 28.9952V33.3263H25.0161V28.9952C25.0161 27.7655 25.3115 27.0763 25.7545 26.584C26.2468 25.9943 26.9853 25.6497 27.8703 25.6497C28.7554 25.6497 29.4938 25.9943 29.9861 26.584C30.4292 27.0763 30.7245 27.7655 30.7245 28.9952V33.3263L34.5131 33.3274Z" fill="white"/>
<path d="M59.9113 15.1681C59.9113 19.3012 65.8166 20.1381 70.2451 22.697C73.0009 24.2712 75.2644 26.8312 75.2644 31.1612C75.2644 37.3609 70.1959 41.2501 64.5859 41.2501C58.9759 41.2501 54.9401 38.5424 53.3659 36.8205L55.5801 32.1447H55.777C57.6467 33.9662 60.5009 35.6882 64.1921 35.6882C66.6043 35.6882 69.2113 34.2605 69.2113 31.4555C69.2113 27.2732 63.3059 26.4363 58.8774 23.8774C56.1217 22.3032 53.8582 19.7443 53.8582 15.4132C53.8582 9.2124 58.9759 5.32434 64.6844 5.32434C70.0482 5.32434 73.6901 8.03198 75.2644 9.50778L73.0501 14.1824H72.8532C70.9343 12.4594 68.5232 10.884 65.1767 10.884C62.5193 10.8862 59.9113 12.3139 59.9113 15.1681ZM76.1505 20.8274H81.9574L85.4013 30.8177H85.5983L90.4698 16.8912H94.4071L99.5248 30.9654H99.7217L104.643 16.8912H110.154L101.739 40.5116H97.9002L92.4872 25.6508H92.2902L87.0741 40.5116H83.1368L76.1505 20.8274ZM112.567 7.04848H118.424V12.7077H112.567V7.04848ZM112.666 16.8901H118.325V40.5105H112.666V16.8901ZM131.513 41.2501C128.167 41.2501 124.919 39.9701 122.655 37.8062L124.229 33.5724H124.426C126.198 35.1467 128.461 36.3785 131.069 36.3785C133.037 36.3785 134.317 35.5416 134.317 34.0647C134.317 32.5386 132.693 31.9478 130.675 31.3078C127.427 30.2751 123.146 28.6997 123.146 23.779C123.146 19.2509 126.69 16.1505 131.758 16.1505C134.514 16.1505 137.319 17.134 139.632 18.9555L138.058 23.2363H137.861C136.187 21.9071 134.022 21.0221 132.201 21.0221C129.987 21.0221 128.707 21.859 128.707 23.3348C128.707 24.8609 130.331 25.4517 132.349 26.0917C135.597 27.1244 139.878 28.6997 139.878 33.6205C139.879 38.1497 136.337 41.2501 131.513 41.2501ZM151.739 41.2501C148.393 41.2501 145.144 39.9701 142.881 37.8062L144.455 33.5724H144.652C146.423 35.1467 148.687 36.3785 151.296 36.3785C153.264 36.3785 154.544 35.5416 154.544 34.0647C154.544 32.5386 152.921 31.9478 150.902 31.3078C147.654 30.2751 143.373 28.6997 143.373 23.779C143.373 19.2509 146.917 16.1505 151.985 16.1505C154.741 16.1505 157.546 17.134 159.859 18.9555L158.284 23.2363H158.087C156.414 21.9071 154.249 21.0221 152.427 21.0221C150.213 21.0221 148.934 21.859 148.934 23.3348C148.934 24.8609 150.558 25.4517 152.575 26.0917C155.824 27.1244 160.105 28.6997 160.105 33.6205C160.105 38.1497 156.562 41.2501 151.739 41.2501ZM186.138 16.8901V50.8466H180.478V38.7886C178.855 40.3147 176.492 41.2501 174.228 41.2501C167.536 41.2501 163.254 36.0809 163.254 28.9459C163.254 22.2539 167.832 16.1516 174.819 16.1516C176.984 16.1516 179.1 16.9885 180.773 18.3166H180.971V16.889L186.138 16.8901ZM180.478 23.0416C179.297 21.9585 177.427 21.3197 175.705 21.3197C171.671 21.3197 169.061 24.4693 169.061 28.8978C169.061 32.8843 171.325 36.082 175.361 36.082C177.281 36.082 179.101 35.3447 180.479 33.8689L180.478 23.0416ZM196.57 31.0135C196.57 33.0812 196.914 33.9662 197.505 34.7047C198.243 35.5908 199.424 36.1794 200.753 36.1794C202.081 36.1794 203.263 35.5897 204.001 34.7047C204.592 33.9662 204.936 33.0812 204.936 31.0135V16.8901H210.595V30.4228C210.595 34.2616 209.562 36.6728 207.791 38.3958C206.019 40.167 203.509 41.2501 200.507 41.2501C197.751 41.2501 195.34 40.2162 193.618 38.4932C191.895 36.7712 190.911 34.3098 190.911 30.4228V16.8901H196.57V31.0135ZM214.483 28.947C214.483 21.4181 219.602 16.1527 226.786 16.1527C233.97 16.1527 239.088 21.4181 239.088 28.4558C239.088 35.9847 233.97 41.2512 226.786 41.2512C219.602 41.2512 214.483 35.9836 214.483 28.947ZM226.786 21.3197C222.996 21.3197 220.29 24.5185 220.29 28.7008C220.29 32.8832 222.998 36.082 226.786 36.082C230.575 36.082 233.282 32.8843 233.282 28.7008C233.282 24.5174 230.576 21.3197 226.786 21.3197ZM258.281 35.8851V40.2644C256.755 40.9033 255.082 41.249 253.211 41.249C250.702 41.249 248.832 40.5094 247.552 39.2295C246.174 37.8532 245.485 35.8348 245.485 32.2432V21.8098H240.073V16.889H245.485V9.01658H251.145V16.8901H258.28V21.8109H251.145V32.9816C251.145 34.2124 251.391 34.9016 251.784 35.3436C252.473 36.1302 253.605 36.3293 254.835 36.3293C256.115 36.3293 257.64 36.0328 258.083 35.8851H258.281ZM272.158 41.2501C265.27 41.2501 260.101 36.3785 260.101 28.9459C260.101 22.1555 264.235 16.1516 271.568 16.1516C277.818 16.1516 282 21.1216 282 27.9624V29.832H266.007C266.155 33.5232 268.713 36.28 272.454 36.28C274.865 36.28 277.08 35.2943 279.097 33.6216H279.293L281.41 37.5578C279.196 39.9209 275.899 41.2501 272.158 41.2501ZM276.342 25.4035C276.293 23.1893 274.57 20.9739 271.667 20.9739C268.813 20.9739 266.894 22.8939 266.303 25.4035H276.342Z" fill="white"/>
</svg>
