
<svg width="302" height="136" viewBox="0 0 302 136" fill="none" xmlns="http://www.w3.org/2000/svg">
<path fill-rule="evenodd" clip-rule="evenodd" d="M152.075 0.523682C189.301 0.523682 219.626 30.7566 219.626 67.8731C219.626 104.988 189.301 135.267 152.075 135.267C114.844 135.267 84.4731 104.988 84.4731 67.8731C84.4731 30.7566 114.844 0.523682 152.075 0.523682Z" fill="#C2185B"/>
<path fill-rule="evenodd" clip-rule="evenodd" d="M155.015 99.0346C156.881 98.4782 160.003 95.8258 160.378 93.3611C160.705 90.8965 159.82 88.2458 158.137 91.8267C156.506 95.4554 155.948 96.7577 154.64 97.3158C153.38 97.9183 153.191 99.5927 155.015 99.0346ZM288.488 88.2441C290.306 88.8005 290.678 89.3586 291.799 90.5227C292.919 91.6372 293.806 92.9873 292.545 93.9175C291.241 94.8478 290.496 95.0338 289.048 93.5454C287.557 92.011 286.108 89.7324 286.108 89.7324C286.108 89.7324 286.668 87.6398 288.488 88.2441ZM297.676 96.3839C299.171 96.756 298.796 96.942 299.683 98.4782C300.616 99.9665 301.177 101.873 301.364 103.221C301.547 104.524 301.547 108.523 299.683 106.988C297.865 105.5 296.743 102.663 296.372 100.757C296.045 98.8485 296.231 96.0118 297.676 96.3839Z" fill="white"/>
<path fill-rule="evenodd" clip-rule="evenodd" d="M188.462 30.9426C191.076 28.478 192.521 26.3854 196.581 27.1739C200.593 27.9198 204.278 31.499 206.519 31.499C208.708 31.499 212.908 31.6851 215.524 33.2212C218.088 34.7556 220.282 36.0579 220.84 37.5941C221.401 39.0824 221.026 39.8727 223.221 39.6884C225.411 39.5023 230.403 38.5243 233.156 39.8727C235.911 41.175 238.85 45.9182 241.228 46.292C243.656 46.7102 244.168 47.8265 247.665 47.6404C251.166 47.4561 254.292 48.0125 258.165 50.6632C262.037 53.3139 267.17 58.0589 271.226 57.8728C275.239 57.6868 279.856 57.8728 281.678 55.5942C283.544 53.3156 283.73 48.3846 282.982 46.4781C282.236 44.6176 279.298 39.0824 274.867 36.2457C270.481 33.4072 268.427 30.5705 268.802 28.85C269.177 27.1757 270.106 22.9888 272.861 21.8265C275.612 20.7102 280.93 20.1521 282.611 18.6176C284.242 17.0832 286.483 15.2228 286.483 15.2228C286.483 15.2228 287.557 13.5023 287.182 17.2693C286.855 21.0823 287.182 22.2463 284.989 24.2928C282.799 26.3871 281.116 28.1059 278.926 28.1059C276.733 28.1059 273.98 28.2919 275.8 31.1286C277.666 33.9654 282.424 35.6876 284.056 39.0824C285.733 42.5251 290.308 47.6404 287.37 54.6623C284.431 61.6859 277.48 62.4317 275.8 62.6161C274.165 62.8021 270.106 62.4317 268.615 62.8021C267.17 63.1742 265.675 63.1742 265.675 63.1742C265.675 63.1742 266.234 65.4528 265.675 69.0815C265.164 72.6641 264.415 76.2911 264.044 77.4074C263.669 78.5714 264.044 80.85 265.675 81.0344C267.353 81.2204 273.232 81.7803 274.681 81.7803C276.172 81.7803 276.172 82.3384 276.547 83.6868C276.922 84.9891 278.553 89.1759 280.606 91.0824C282.612 92.9889 285.735 93.9192 286.297 94.8494C286.855 95.8257 286.672 98.4781 288.303 98.4781C289.981 98.4781 291.801 98.6624 291.801 98.6624L294.552 106.244L289.048 106.802C289.048 106.802 286.67 106.802 285.922 105.498C285.175 104.15 283.869 101.313 279.485 101.497C275.054 101.683 274.165 102.056 273.047 100.567C271.928 99.0328 270.104 95.2181 262.736 95.4519C255.414 95.6362 256.67 96.9402 255.414 96.7542C254.106 96.5681 251.726 93.9175 250.422 93.7314C249.161 93.5471 248.04 94.2895 246.92 93.5471C245.847 92.7551 243.282 89.734 243.282 89.734L241.974 84.617C241.974 84.617 241.974 82.7105 244.914 85.3629C247.853 88.0596 248.415 90.2922 252.474 91.0841C256.487 91.8283 257.417 92.3864 257.417 92.3864C257.417 92.3864 259.798 92.2021 255.972 90.526C252.099 88.8038 245.847 82.1541 244.914 78.9452C243.981 75.6903 243.282 70.9914 243.282 70.9914L242.349 71.1775L241.791 78.5731C241.791 78.5731 241.791 81.968 236.845 82.1541C231.853 82.3401 228.539 82.7122 225.226 83.5024C221.963 84.2483 218.462 84.6187 218.462 84.6187C218.462 84.6187 215.711 84.8047 215.711 82.8965C215.711 81.0361 216.784 78.9452 216.784 78.9452L215.527 78.7592C215.527 78.7592 212.584 84.0606 210.718 85.781C208.9 87.4554 204.839 92.7585 204.839 92.7585C204.839 92.7585 202.461 98.6658 205.589 99.0379C208.712 99.41 209.648 101.876 212.026 99.5961C214.408 97.3175 217.159 93.1784 217.159 93.1784C217.159 93.1784 219.165 91.6423 220.657 91.8283C222.151 92.0144 224.158 92.0144 224.158 92.0144L221.964 98.6641C221.964 98.6641 221.406 99.5944 220.47 99.4083C219.537 99.224 219.354 99.4083 218.838 100.944C218.28 102.431 217.534 105.316 215.527 106.06C213.475 106.806 210.16 107.362 207.034 105.502C203.908 103.595 200.597 102.247 198.59 102.247C196.584 102.247 192.525 99.7821 192.338 96.0151C192.152 92.2021 192.525 88.0614 193.833 85.781C195.093 83.5024 196.022 81.5959 196.022 81.5959L198.59 82.1541C198.59 82.1541 197.142 85.781 196.209 88.4334C195.276 91.0858 194.343 94.1086 194.904 95.8291C195.463 97.5018 198.777 100.202 198.215 96.7593C197.657 93.3645 197.329 93.7365 198.029 91.4579C198.779 89.1793 201.53 83.5041 201.53 83.5041C201.53 83.5041 203.583 80.4353 199.149 79.8772C194.718 79.319 194.343 79.5051 194.203 77.4125C194.016 75.3182 193.831 73.4595 193.831 73.4595C193.831 73.4595 192.898 69.8325 191.965 73.4595C191.078 77.0404 190.517 76.4823 190.517 76.4823C190.517 76.4823 190.33 77.7846 191.403 78.155C192.523 78.5748 195.276 81.0378 192.523 81.2255C189.77 81.4133 187.577 81.4116 186.271 80.4353C185.014 79.5051 182.96 76.4823 182.773 80.2492C182.587 84.0623 183.706 85.3663 184.826 86.899C185.899 88.4334 187.952 89.9218 187.952 89.9218C187.952 89.9218 188.276 91.0859 186.457 91.8283C184.639 92.5742 184.826 93.9226 185.899 94.293C187.019 94.6651 187.952 95.2232 187.765 97.3157C187.579 99.4083 187.952 101.875 184.639 100.944C181.328 99.9681 179.647 98.6641 177.457 98.4798C175.264 98.2937 174.703 97.3157 173.398 97.7339C172.138 98.1077 169.199 99.0362 168.641 98.1077C168.079 97.1297 166.588 95.2232 165.514 97.7339C164.395 100.199 161.642 100.571 159.635 101.501C157.583 102.431 157.067 101.501 158.141 100.571C159.26 99.5944 161.455 97.3157 161.828 95.2215C162.2 93.1767 162.761 91.6389 163.506 90.5243C164.205 89.3603 164.393 86.7113 162.76 88.43C161.079 90.1044 161.64 87.4537 162.01 85.3612C162.385 83.3147 162.76 79.872 164.016 77.2196C165.324 74.5689 165.698 64.7086 167.517 60.3358C172.275 49.081 179.738 39.3129 188.462 30.9426ZM185.336 66.9889C186.831 66.8029 187.206 66.057 187.206 67.361C187.206 68.7094 187.389 69.2676 186.456 69.6396C185.523 70.0117 184.078 69.2675 184.078 69.2675L185.336 66.9889ZM268.285 90.7104C269.92 90.2905 271.551 90.1061 273.979 91.8249C276.357 93.5471 278.363 96.5682 278.363 96.5682C278.363 96.5682 279.11 99.9647 276.545 97.7322C273.98 95.4536 271.739 92.383 270.293 92.5708C268.8 92.7551 266.605 91.0807 268.285 90.7104ZM174.514 93.9192C173.02 93.5471 172.833 89.734 175.631 91.6389C178.387 93.5471 175.959 94.2895 174.514 93.9192ZM169.707 78.3837L172.833 71.1741C172.833 71.1741 174.141 70.01 174.886 70.988C175.632 71.9182 176.146 72.6624 176.146 72.6624C176.146 72.6624 178.199 73.2206 177.266 71.1741C176.691 69.8753 176.207 68.5385 175.817 67.1733C175.817 67.1733 174.513 63.1725 172.32 67.9175C170.079 72.6624 168.074 77.4074 168.074 77.4074C168.074 77.4074 168.637 80.6162 169.707 78.3837ZM191.076 44.0117C191.076 44.0117 194.34 41.7775 193.641 45.1741C192.895 48.5689 191.588 53.4999 191.4 55.0344C191.26 56.5688 190.327 57.6851 189.768 56.1506C189.21 54.6606 189.394 50.8492 189.582 48.755C189.768 46.7085 190.701 44.988 190.701 44.988L191.076 44.0117ZM146.989 99.0345C145.123 98.4781 141.997 95.8257 141.623 93.361C141.25 90.8964 142.183 88.2457 143.863 91.8266C145.496 95.4553 146.056 96.7576 147.316 97.3157C148.62 97.9183 148.809 99.5927 146.989 99.0345ZM13.5154 88.244C11.6493 88.8004 11.2744 89.3586 10.2027 90.5226C9.08302 91.6372 8.14998 92.9873 9.45624 93.9175C10.7625 94.8477 11.4627 95.0337 12.9556 93.5454C14.4022 92.011 15.8951 89.7323 15.8951 89.7323C15.8951 89.7323 15.3336 87.6398 13.5154 88.244ZM4.32364 96.3838C2.83077 96.7559 3.20398 96.942 2.27094 98.4781C1.38412 99.9664 0.824291 101.873 0.637682 103.221C0.451073 104.524 0.451072 108.523 2.27094 106.988C4.13703 105.5 5.21046 102.663 5.58368 100.757C5.95689 98.8502 5.77028 96.0117 4.32364 96.3838Z" fill="white"/>
<path fill-rule="evenodd" clip-rule="evenodd" d="M113.492 30.9426C110.925 28.478 109.479 26.3854 105.419 27.1739C101.36 27.9198 97.6761 31.499 95.483 31.499C93.2899 31.499 89.0458 31.6851 86.4795 33.2212C83.9132 34.7573 81.7219 36.0579 81.162 37.5941C80.6022 39.0824 80.9754 39.8727 78.7823 39.6884C76.5413 39.5023 71.597 38.5243 68.8441 39.8727C66.0929 41.175 63.1534 45.9182 60.7275 46.292C58.3478 46.7102 57.788 47.8265 54.3366 47.6404C50.8372 47.4561 47.7111 48.0125 43.8402 50.6632C39.9694 53.3139 34.8368 58.0589 30.7776 57.8728C26.7184 57.6868 22.1457 57.8728 20.3275 55.5942C18.4614 53.3156 18.2748 48.3846 19.0195 46.4781C19.7677 44.6176 22.7055 39.0824 27.0917 36.2457C31.524 33.4072 33.5305 30.5705 33.1556 28.85C32.7824 27.1757 31.8956 22.9888 29.1426 21.8265C26.3897 20.7102 21.0243 20.1521 19.3927 18.6176C17.7133 17.0832 15.5202 15.2228 15.5202 15.2228C15.5202 15.2228 14.4005 13.5023 14.7737 17.2693C15.147 21.0823 14.7737 22.2463 17.0131 24.2928C19.2061 26.3871 20.8377 28.1059 23.077 28.1059C25.2701 28.1059 28.023 28.2919 26.2031 31.1286C24.337 33.9654 19.5776 35.6876 17.8982 39.0824C16.2649 42.5251 11.6476 47.6404 14.5854 54.6623C17.5249 61.6859 24.5219 62.4317 26.2031 62.6161C27.8347 62.8021 31.8938 62.4317 33.3405 62.8021C34.8334 63.1742 36.28 63.1742 36.28 63.1742C36.28 63.1742 35.7664 65.4528 36.28 69.0815C36.8398 72.6641 37.5863 76.2911 37.9595 77.4074C38.3327 78.5714 37.9595 80.85 36.28 81.0344C34.6467 81.2204 28.7694 81.7803 27.2765 81.7803C25.8299 81.7803 25.8299 82.3384 25.4567 83.6868C25.0835 84.9891 23.4502 89.1759 21.3975 91.0824C19.391 92.9889 16.2649 93.9192 15.7051 94.8494C15.1453 95.8257 15.3319 98.4781 13.6986 98.4781C12.0191 98.4781 10.201 98.6624 10.201 98.6624L7.44806 106.244L12.9539 106.802C12.9539 106.802 15.3336 106.802 16.08 105.498C16.8264 104.15 18.0865 101.313 22.5172 101.497C26.9033 101.684 27.8347 102.056 28.956 100.567C30.0295 99.0328 31.8955 95.2181 39.2195 95.4519C46.5914 95.6363 45.2835 96.9402 46.5914 96.7542C47.8977 96.5682 50.2757 93.9175 51.5374 93.7314C52.8437 93.5471 53.9633 94.2895 55.0351 93.5471C56.1547 92.7551 58.721 89.7341 58.721 89.7341L60.0273 84.617C60.0273 84.617 60.0273 82.7105 57.0895 85.3629C54.15 88.0597 53.5901 90.2922 49.531 91.0841C45.4718 91.8283 44.585 92.3865 44.585 92.3865C44.585 92.3865 42.159 92.2021 46.0316 90.526C49.9042 88.8038 56.1547 82.1541 57.0878 78.9452C57.9746 75.6903 58.721 70.9914 58.721 70.9914L59.6541 71.1775L60.2139 78.5731C60.2139 78.5731 60.2139 81.968 65.1599 82.1541C70.1042 82.3401 73.4169 82.7122 76.7296 83.5024C80.0424 84.2483 83.5417 84.6187 83.5417 84.6187C83.5417 84.6187 86.2946 84.8047 86.2946 82.8965C86.2946 81.0361 85.2212 78.9452 85.2212 78.9452L86.4812 78.7592C86.4812 78.7592 89.4208 84.0606 91.2869 85.7811C93.1067 87.4554 97.1659 92.7585 97.1659 92.7585C97.1659 92.7585 99.5456 98.6659 96.4195 99.0379C93.2933 99.41 92.3603 101.876 89.9823 99.5961C87.6026 97.3175 84.8497 93.1784 84.8497 93.1784C84.8497 93.1784 82.797 91.6423 81.3504 91.8283C79.8575 92.0144 77.8527 92.0144 77.8527 92.0144L80.0441 98.6641C80.0441 98.6641 80.6039 99.5944 81.537 99.4083C82.4238 99.224 82.6104 99.4083 83.1702 100.944C83.73 102.431 84.4765 105.316 86.483 106.06C88.4894 106.804 91.8005 107.362 94.9283 105.502C98.0544 103.595 101.365 102.247 103.418 102.247C105.425 102.247 109.484 99.7821 109.67 96.0151C109.857 92.2021 109.484 88.0614 108.178 85.7811C106.871 83.5024 105.984 81.5959 105.984 81.5959L103.418 82.1541C103.418 82.1541 104.865 85.7811 105.798 88.4335C106.731 91.0859 107.618 94.1086 107.058 95.8291C106.544 97.5018 103.232 100.202 103.745 96.7593C104.305 93.3645 104.678 93.7365 103.932 91.4579C103.232 89.1793 100.48 83.5042 100.48 83.5042C100.48 83.5042 98.4277 80.4353 102.86 79.8772C107.246 79.319 107.619 79.5051 107.806 77.4125C107.993 75.3199 108.179 73.4595 108.179 73.4595C108.179 73.4595 109.112 69.8325 109.999 73.4595C110.932 77.0404 111.492 76.4823 111.492 76.4823C111.492 76.4823 111.679 77.7846 110.559 78.155C109.487 78.5749 106.734 81.0378 109.487 81.2255C112.238 81.4116 114.432 81.4116 115.738 80.4353C116.998 79.5051 119.051 76.4823 119.191 80.2493C119.377 84.0623 118.304 85.3663 117.184 86.899C116.111 88.4335 114.058 89.9218 114.058 89.9218C114.058 89.9218 113.685 91.0859 115.551 91.8283C117.371 92.5742 117.184 93.9226 116.111 94.293C114.991 94.6651 114.058 95.2232 114.245 97.3158C114.432 99.4083 114.058 101.875 117.371 100.944C120.684 99.9681 122.315 98.6641 124.555 98.4798C126.748 98.2937 127.306 97.3157 128.568 97.7339C129.874 98.1077 132.812 99.0362 133.373 98.1077C133.933 97.1297 135.38 95.2232 136.499 97.7339C137.619 100.199 140.372 100.571 142.378 101.501C144.385 102.431 144.945 101.501 143.871 100.571C142.752 99.5944 140.558 97.3157 140.187 95.2215C139.814 93.1767 139.254 91.6389 138.507 90.5243C137.761 89.3603 137.621 86.7113 139.254 88.43C140.887 90.1044 140.374 87.4537 140 85.3612C139.627 83.3147 139.254 79.872 137.948 77.2196C136.688 74.5689 136.314 64.7086 134.496 60.3358C129.727 49.081 122.262 39.3129 113.492 30.9426ZM116.618 66.9889C115.171 66.8029 114.798 66.057 114.798 67.361C114.798 68.7094 114.611 69.2676 115.544 69.6396C116.431 70.0117 117.924 69.2676 117.924 69.2676L116.618 66.9889ZM33.7154 90.7104C32.0839 90.2905 30.4027 90.1062 28.0247 91.8249C25.645 93.5471 23.5923 96.5682 23.5923 96.5682C23.5923 96.5682 22.8921 99.9647 25.4584 97.7322C28.0247 95.4536 30.2178 92.383 31.7107 92.5708C33.1556 92.7551 35.3949 91.0807 33.7154 90.7104ZM127.487 93.9192C128.934 93.5471 129.121 89.734 126.368 91.6389C123.615 93.5471 125.994 94.2896 127.487 93.9192ZM132.245 78.3837L129.119 71.1741C129.119 71.1741 127.859 70.01 127.114 70.988C126.368 71.9183 125.808 72.6624 125.808 72.6624C125.808 72.6624 123.801 73.2206 124.734 71.1741C125.621 69.0798 126.181 67.1733 126.181 67.1733C126.181 67.1733 127.487 63.1725 129.68 67.9175C131.873 72.6624 133.926 77.4074 133.926 77.4074C133.926 77.4074 133.366 80.6162 132.245 78.3837ZM110.925 44.0117C110.925 44.0117 107.613 41.7775 108.359 45.1741C109.105 48.5689 110.365 53.4999 110.552 55.0344C110.739 56.5688 111.672 57.6851 112.232 56.1506C112.791 54.6606 112.605 50.8493 112.418 48.755C112.232 46.7085 111.299 44.988 111.299 44.988L110.925 44.0117Z" fill="white"/>
</svg>
