<svg width="81" height="50" viewBox="0 0 81 50" fill="none" xmlns="http://www.w3.org/2000/svg">
<path d="M27.4842 40.3476H24.0471L21.1936 46.5236L15.8368 42.9813L16.0444 42.4546H20.8304L21.8162 40.295H15.1624C14.7473 40.295 14.3842 40.5583 14.2285 40.9271L13.5541 42.3492C13.1909 43.1393 13.4503 44.0874 14.1766 44.6142L18.5477 47.5112L18.4439 47.7746H12.3089L11.3232 49.9342H22.1794L25.7722 42.1912L28.3662 47.8404H25.3052L26.291 50H31.9461L27.4842 40.3476ZM69.2618 40.4003H65.8376L62.2967 48.1038L61.726 44.1006H57.9387L56.1228 48.1038V40.4003H53.6325V50H57.8479L59.5081 46.2602L60.0269 50H63.9699L67.5497 42.2439L70.1438 47.8404H67.0828L68.0686 50H73.6847L69.2618 40.4003ZM51.2849 42.5072L52.2706 40.4003H42.1927V47.8404H35.7464V40.4003H33.2561V50H41.7257L42.7115 47.8404H44.3198L43.334 50H51.2849L52.2706 47.8404H44.683V46.1022H49.6766L50.5067 44.2586H44.683V42.5204H51.2849V42.5072Z" fill="white"/>
<path d="M48.0552 30.2212L73.6199 20.7796L81 3.79247L49.9359 26.8896L48.0552 30.2212ZM47.1733 31.7487L44.216 36.9765L38.7036 27.2715L11.4269 19.8314L0 0L40.1174 23.2157L47.1733 31.7487Z" fill="white"/>
</svg>
