<svg width="46" height="47" viewBox="0 0 46 47" fill="none" xmlns="http://www.w3.org/2000/svg">
<path d="M23.0961 0.896973C35.8412 0.896973 45.9792 11.035 45.9792 23.7801C45.9792 36.5262 35.8412 46.6632 23.0961 46.6632C10.35 46.6632 0.213013 36.5262 0.213013 23.7801C0.213013 11.035 10.35 0.896973 23.0961 0.896973ZM11.6792 14.2328V18.0213H34.5131V14.2328H11.6792ZM34.5131 33.3274V21.8601H11.6792V33.3263H15.4688V28.9952C15.4688 27.7655 15.7642 27.0763 16.2061 26.584C16.6984 25.9943 17.4369 25.6497 18.323 25.6497C19.2092 25.6497 19.9465 25.9943 20.4388 26.584C20.8819 27.0763 21.1772 27.7655 21.1772 28.9952V33.3263H25.0161V28.9952C25.0161 27.7655 25.3115 27.0763 25.7545 26.584C26.2468 25.9943 26.9853 25.6497 27.8703 25.6497C28.7554 25.6497 29.4938 25.9943 29.9861 26.584C30.4292 27.0763 30.7245 27.7655 30.7245 28.9952V33.3263L34.5131 33.3274Z" fill="white"/>
</svg>
