<svg width="51" height="51" viewBox="0 0 51 51" fill="none" xmlns="http://www.w3.org/2000/svg">
<path fill-rule="evenodd" clip-rule="evenodd" d="M35.599 2.87784C31.2557 5.043 28.3019 9.02028 28.1524 13.604C34.6084 14.7074 39.544 20.1585 39.544 26.7269C39.544 34.1495 33.3387 40.1105 25.7417 40.1105C17.3384 40.1105 11.6121 32.7621 11.7601 24.5275C11.7601 12.4894 21.8073 2.74584 34.2223 2.74584C34.6131 2.74584 35.0002 2.75907 35.3853 2.77866C32.2199 1.33869 28.7045 0.535583 25.007 0.535583C11.2175 0.535583 0.0594482 11.6936 0.0594482 25.4827C0.0594482 39.3776 11.2175 50.5356 25.007 50.5356C38.7966 50.5356 50.0594 39.3773 50.0594 25.4825C50.0594 15.4742 44.1253 6.85371 35.599 2.87784ZM35.7596 2.79708C35.6354 2.78882 35.51 2.7848 35.3853 2.77866C35.4571 2.81125 35.5279 2.84479 35.599 2.87784C35.6526 2.8514 35.7055 2.8233 35.7596 2.79708Z" fill="white"/>
</svg>
